<!DOCTYPE svg PUBLIC "-//W3C//DTD SVG 1.1//EN" "http://www.w3.org/Graphics/SVG/1.1/DTD/svg11.dtd">
<!-- Uploaded to: SVG Repo, www.svgrepo.com, Transformed by: SVG Repo Mixer Tools -->
<svg fill="#ffc100" width="800px" height="800px" viewBox="-3.2 -3.2 38.40 38.40" version="1.1" xmlns="http://www.w3.org/2000/svg" stroke="#ffc100" transform="rotate(0)matrix(1, 0, 0, 1, 0, 0)" stroke-width="0.512">
<g id="SVGRepo_bgCarrier" stroke-width="0"/>
<g id="SVGRepo_tracerCarrier" stroke-linecap="round" stroke-linejoin="round" stroke="#CCCCCC" stroke-width="0.064"/>
<g id="SVGRepo_iconCarrier"> <title>plus</title> <path d="M15.5 29.5c-7.18 0-13-5.82-13-13s5.82-13 13-13 13 5.82 13 13-5.82 13-13 13zM21.938 15.938c0-0.552-0.448-1-1-1h-4v-4c0-0.552-0.447-1-1-1h-1c-0.553 0-1 0.448-1 1v4h-4c-0.553 0-1 0.448-1 1v1c0 0.553 0.447 1 1 1h4v4c0 0.553 0.447 1 1 1h1c0.553 0 1-0.447 1-1v-4h4c0.552 0 1-0.447 1-1v-1z"/> </g>
</svg>